<?xml version="1.0" encoding="UTF-8" standalone="no"?>
<!DOCTYPE svg PUBLIC "-//W3C//DTD SVG 1.1//EN"
 "http://www.w3.org/Graphics/SVG/1.1/DTD/svg11.dtd">
<!-- Generated by graphviz version 2.40.1 (20161225.0304)
 -->
<!-- Title: snakemake_dag Pages: 1 -->
<svg width="308pt" height="764pt"
 viewBox="0.00 0.00 308.00 764.00" xmlns="http://www.w3.org/2000/svg" xmlns:xlink="http://www.w3.org/1999/xlink">
<g id="graph0" class="graph" transform="scale(1 1) rotate(0) translate(4 760)">
<title>snakemake_dag</title>
<polygon fill="#ffffff" stroke="transparent" points="-4,4 -4,-760 304,-760 304,4 -4,4"/>
<!-- 0 -->
<g id="node1" class="node">
<title>0</title>
<path fill="none" stroke="#d8bc56" stroke-width="2" d="M176,-36C176,-36 146,-36 146,-36 140,-36 134,-30 134,-24 134,-24 134,-12 134,-12 134,-6 140,0 146,0 146,0 176,0 176,0 182,0 188,-6 188,-12 188,-12 188,-24 188,-24 188,-30 182,-36 176,-36"/>
<text text-anchor="middle" x="161" y="-15.5" font-family="sans" font-size="10.00" fill="#000000">target</text>
</g>
<!-- 1 -->
<g id="node2" class="node">
<title>1</title>
<path fill="none" stroke="#88d856" stroke-width="2" d="M198,-108C198,-108 124,-108 124,-108 118,-108 112,-102 112,-96 112,-96 112,-84 112,-84 112,-78 118,-72 124,-72 124,-72 198,-72 198,-72 204,-72 210,-78 210,-84 210,-84 210,-96 210,-96 210,-102 204,-108 198,-108"/>
<text text-anchor="middle" x="161" y="-87.5" font-family="sans" font-size="10.00" fill="#000000">combine_chunks</text>
</g>
<!-- 1&#45;&gt;0 -->
<g id="edge2" class="edge">
<title>1&#45;&gt;0</title>
<path fill="none" stroke="#c0c0c0" stroke-width="2" d="M161,-71.8314C161,-64.131 161,-54.9743 161,-46.4166"/>
<polygon fill="#c0c0c0" stroke="#c0c0c0" stroke-width="2" points="164.5001,-46.4132 161,-36.4133 157.5001,-46.4133 164.5001,-46.4132"/>
</g>
<!-- 2 -->
<g id="node3" class="node">
<title>2</title>
<path fill="none" stroke="#56d88a" stroke-width="2" d="M82,-108C82,-108 52,-108 52,-108 46,-108 40,-102 40,-96 40,-96 40,-84 40,-84 40,-78 46,-72 52,-72 52,-72 82,-72 82,-72 88,-72 94,-78 94,-84 94,-84 94,-96 94,-96 94,-102 88,-108 82,-108"/>
<text text-anchor="middle" x="67" y="-87.5" font-family="sans" font-size="10.00" fill="#000000">gzip</text>
</g>
<!-- 2&#45;&gt;0 -->
<g id="edge1" class="edge">
<title>2&#45;&gt;0</title>
<path fill="none" stroke="#c0c0c0" stroke-width="2" d="M90.7202,-71.8314C102.4094,-62.8779 116.6688,-51.9558 129.2809,-42.2955"/>
<polygon fill="#c0c0c0" stroke="#c0c0c0" stroke-width="2" points="131.4769,-45.0222 137.2874,-36.1628 127.2203,-39.4651 131.4769,-45.0222"/>
</g>
<!-- 3 -->
<g id="node4" class="node">
<title>3</title>
<path fill="none" stroke="#569ad8" stroke-width="2" d="M288,-324C288,-324 232,-324 232,-324 226,-324 220,-318 220,-312 220,-312 220,-300 220,-300 220,-294 226,-288 232,-288 232,-288 288,-288 288,-288 294,-288 300,-294 300,-300 300,-300 300,-312 300,-312 300,-318 294,-324 288,-324"/>
<text text-anchor="middle" x="260" y="-303.5" font-family="sans" font-size="10.00" fill="#000000">sam_to_bam</text>
</g>
<!-- 3&#45;&gt;0 -->
<g id="edge3" class="edge">
<title>3&#45;&gt;0</title>
<path fill="none" stroke="#c0c0c0" stroke-width="2" d="M260.6214,-287.7143C261.2397,-246.5398 258.3493,-144.4973 219,-72 213.0522,-61.0418 204.0471,-51.0749 194.8945,-42.7707"/>
<polygon fill="#c0c0c0" stroke="#c0c0c0" stroke-width="2" points="197.1045,-40.0552 187.2355,-36.201 192.547,-45.3683 197.1045,-40.0552"/>
</g>
<!-- 4 -->
<g id="node5" class="node">
<title>4</title>
<path fill="none" stroke="#d89c56" stroke-width="2" d="M137,-180C137,-180 107,-180 107,-180 101,-180 95,-174 95,-168 95,-168 95,-156 95,-156 95,-150 101,-144 107,-144 107,-144 137,-144 137,-144 143,-144 149,-150 149,-156 149,-156 149,-168 149,-168 149,-174 143,-180 137,-180"/>
<text text-anchor="middle" x="122" y="-159.5" font-family="sans" font-size="10.00" fill="#000000">racon</text>
</g>
<!-- 4&#45;&gt;1 -->
<g id="edge4" class="edge">
<title>4&#45;&gt;1</title>
<path fill="none" stroke="#c0c0c0" stroke-width="2" d="M131.8413,-143.8314C136.1957,-135.7925 141.4098,-126.1666 146.2169,-117.2918"/>
<polygon fill="#c0c0c0" stroke="#c0c0c0" stroke-width="2" points="149.3408,-118.8732 151.0261,-108.4133 143.1857,-115.5392 149.3408,-118.8732"/>
</g>
<!-- 4&#45;&gt;2 -->
<g id="edge6" class="edge">
<title>4&#45;&gt;2</title>
<path fill="none" stroke="#c0c0c0" stroke-width="2" d="M108.1212,-143.8314C101.7864,-135.5386 94.1616,-125.557 87.2074,-116.4533"/>
<polygon fill="#c0c0c0" stroke="#c0c0c0" stroke-width="2" points="89.9175,-114.2353 81.0657,-108.4133 84.3548,-118.4847 89.9175,-114.2353"/>
</g>
<!-- 5 -->
<g id="node6" class="node">
<title>5</title>
<path fill="none" stroke="#d87556" stroke-width="2" d="M55,-612C55,-612 21,-612 21,-612 15,-612 9,-606 9,-600 9,-600 9,-588 9,-588 9,-582 15,-576 21,-576 21,-576 55,-576 55,-576 61,-576 67,-582 67,-588 67,-588 67,-600 67,-600 67,-606 61,-612 55,-612"/>
<text text-anchor="middle" x="38" y="-591.5" font-family="sans" font-size="10.00" fill="#000000">partition</text>
</g>
<!-- 5&#45;&gt;2 -->
<g id="edge5" class="edge">
<title>5&#45;&gt;2</title>
<path fill="none" stroke="#c0c0c0" stroke-width="2" d="M29.9412,-575.7668C18.7866,-548.8248 0,-496.5405 0,-450 0,-450 0,-450 0,-234 0,-189.7121 26.3742,-144.3128 46.0276,-116.6304"/>
<polygon fill="#c0c0c0" stroke="#c0c0c0" stroke-width="2" points="49.0504,-118.4263 52.1305,-108.2891 43.401,-114.293 49.0504,-118.4263"/>
</g>
<!-- 5&#45;&gt;4 -->
<g id="edge9" class="edge">
<title>5&#45;&gt;4</title>
<path fill="none" stroke="#c0c0c0" stroke-width="2" d="M38,-575.8146C38,-548.4983 38,-495.25 38,-450 38,-450 38,-450 38,-306 38,-263.9747 44.9214,-251.7583 67,-216 73.4705,-205.5204 82.3977,-195.5961 91.1787,-187.1825"/>
<polygon fill="#c0c0c0" stroke="#c0c0c0" stroke-width="2" points="93.7869,-189.5396 98.7922,-180.2016 89.0562,-184.3801 93.7869,-189.5396"/>
</g>
<!-- 10 -->
<g id="node11" class="node">
<title>10</title>
<path fill="none" stroke="#68d856" stroke-width="2" d="M139,-540C139,-540 91,-540 91,-540 85,-540 79,-534 79,-528 79,-528 79,-516 79,-516 79,-510 85,-504 91,-504 91,-504 139,-504 139,-504 145,-504 151,-510 151,-516 151,-516 151,-528 151,-528 151,-534 145,-540 139,-540"/>
<text text-anchor="middle" x="115" y="-519.5" font-family="sans" font-size="10.00" fill="#000000">list_contigs</text>
</g>
<!-- 5&#45;&gt;10 -->
<g id="edge18" class="edge">
<title>5&#45;&gt;10</title>
<path fill="none" stroke="#c0c0c0" stroke-width="2" d="M57.4304,-575.8314C66.732,-567.1337 78.0204,-556.5783 88.1286,-547.1265"/>
<polygon fill="#c0c0c0" stroke="#c0c0c0" stroke-width="2" points="90.6621,-549.5493 95.5759,-540.1628 85.8811,-544.4363 90.6621,-549.5493"/>
</g>
<!-- 6 -->
<g id="node7" class="node">
<title>6</title>
<path fill="none" stroke="#56d8a9" stroke-width="2" d="M212.5,-468C212.5,-468 163.5,-468 163.5,-468 157.5,-468 151.5,-462 151.5,-456 151.5,-456 151.5,-444 151.5,-444 151.5,-438 157.5,-432 163.5,-432 163.5,-432 212.5,-432 212.5,-432 218.5,-432 224.5,-438 224.5,-444 224.5,-444 224.5,-456 224.5,-456 224.5,-462 218.5,-468 212.5,-468"/>
<text text-anchor="middle" x="188" y="-447.5" font-family="sans" font-size="10.00" fill="#000000">chunk_bam</text>
</g>
<!-- 6&#45;&gt;3 -->
<g id="edge8" class="edge">
<title>6&#45;&gt;3</title>
<path fill="none" stroke="#c0c0c0" stroke-width="2" d="M197.1188,-431.7623C209.5618,-406.8764 231.9589,-362.0822 246.3918,-333.2165"/>
<polygon fill="#c0c0c0" stroke="#c0c0c0" stroke-width="2" points="249.6135,-334.5992 250.9552,-324.0896 243.3525,-331.4686 249.6135,-334.5992"/>
</g>
<!-- 6&#45;&gt;4 -->
<g id="edge10" class="edge">
<title>6&#45;&gt;4</title>
<path fill="none" stroke="#c0c0c0" stroke-width="2" d="M189.1143,-431.9289C190.9437,-391.6142 191.7998,-291.9056 162,-216 158.0989,-206.0632 151.8764,-196.3311 145.4904,-187.9268"/>
<polygon fill="#c0c0c0" stroke="#c0c0c0" stroke-width="2" points="148.1204,-185.6121 139.1298,-180.0068 142.6626,-189.9953 148.1204,-185.6121"/>
</g>
<!-- 13 -->
<g id="node14" class="node">
<title>13</title>
<path fill="none" stroke="#56d8d0" stroke-width="2" d="M152,-396C152,-396 78,-396 78,-396 72,-396 66,-390 66,-384 66,-384 66,-372 66,-372 66,-366 72,-360 78,-360 78,-360 152,-360 152,-360 158,-360 164,-366 164,-372 164,-372 164,-384 164,-384 164,-390 158,-396 152,-396"/>
<text text-anchor="middle" x="115" y="-375.5" font-family="sans" font-size="10.00" fill="#000000">extract_read_ids</text>
</g>
<!-- 6&#45;&gt;13 -->
<g id="edge21" class="edge">
<title>6&#45;&gt;13</title>
<path fill="none" stroke="#c0c0c0" stroke-width="2" d="M169.579,-431.8314C160.8471,-423.219 150.2683,-412.7851 140.7577,-403.4048"/>
<polygon fill="#c0c0c0" stroke="#c0c0c0" stroke-width="2" points="142.9925,-400.6931 133.4151,-396.1628 138.077,-405.6769 142.9925,-400.6931"/>
</g>
<!-- 7 -->
<g id="node8" class="node">
<title>7</title>
<path fill="none" stroke="#ced856" stroke-width="2" d="M141.5,-252C141.5,-252 88.5,-252 88.5,-252 82.5,-252 76.5,-246 76.5,-240 76.5,-240 76.5,-228 76.5,-228 76.5,-222 82.5,-216 88.5,-216 88.5,-216 141.5,-216 141.5,-216 147.5,-216 153.5,-222 153.5,-228 153.5,-228 153.5,-240 153.5,-240 153.5,-246 147.5,-252 141.5,-252"/>
<text text-anchor="middle" x="115" y="-231.5" font-family="sans" font-size="10.00" fill="#000000">repair_reads</text>
</g>
<!-- 7&#45;&gt;2 -->
<g id="edge7" class="edge">
<title>7&#45;&gt;2</title>
<path fill="none" stroke="#c0c0c0" stroke-width="2" d="M103.4338,-215.6198C97.4757,-205.45 90.5302,-192.3933 86,-180 78.6212,-159.8138 73.7495,-135.9775 70.7882,-117.9082"/>
<polygon fill="#c0c0c0" stroke="#c0c0c0" stroke-width="2" points="74.2446,-117.3564 69.2609,-108.0069 67.3264,-118.4236 74.2446,-117.3564"/>
</g>
<!-- 7&#45;&gt;4 -->
<g id="edge11" class="edge">
<title>7&#45;&gt;4</title>
<path fill="none" stroke="#c0c0c0" stroke-width="2" d="M116.7664,-215.8314C117.515,-208.131 118.4053,-198.9743 119.2373,-190.4166"/>
<polygon fill="#c0c0c0" stroke="#c0c0c0" stroke-width="2" points="122.7256,-190.7051 120.2098,-180.4133 115.7585,-190.0276 122.7256,-190.7051"/>
</g>
<!-- 8 -->
<g id="node9" class="node">
<title>8</title>
<path fill="none" stroke="#56c1d8" stroke-width="2" d="M236,-612C236,-612 198,-612 198,-612 192,-612 186,-606 186,-600 186,-600 186,-588 186,-588 186,-582 192,-576 198,-576 198,-576 236,-576 236,-576 242,-576 248,-582 248,-588 248,-588 248,-600 248,-600 248,-606 242,-612 236,-612"/>
<text text-anchor="middle" x="217" y="-591.5" font-family="sans" font-size="10.00" fill="#000000">sort_sam</text>
</g>
<!-- 8&#45;&gt;6 -->
<g id="edge14" class="edge">
<title>8&#45;&gt;6</title>
<path fill="none" stroke="#c0c0c0" stroke-width="2" d="M212.2711,-575.5678C209.6744,-565.1601 206.4863,-551.8929 204,-540 199.7037,-519.4494 195.575,-496.1041 192.588,-478.3406"/>
<polygon fill="#c0c0c0" stroke="#c0c0c0" stroke-width="2" points="196.0172,-477.6254 190.9265,-468.3337 189.1118,-478.772 196.0172,-477.6254"/>
</g>
<!-- 9 -->
<g id="node10" class="node">
<title>9</title>
<path fill="none" stroke="#56d86b" stroke-width="2" d="M272.5,-540C272.5,-540 225.5,-540 225.5,-540 219.5,-540 213.5,-534 213.5,-528 213.5,-528 213.5,-516 213.5,-516 213.5,-510 219.5,-504 225.5,-504 225.5,-504 272.5,-504 272.5,-504 278.5,-504 284.5,-510 284.5,-516 284.5,-516 284.5,-528 284.5,-528 284.5,-534 278.5,-540 272.5,-540"/>
<text text-anchor="middle" x="249" y="-519.5" font-family="sans" font-size="10.00" fill="#000000">index_bam</text>
</g>
<!-- 8&#45;&gt;9 -->
<g id="edge17" class="edge">
<title>8&#45;&gt;9</title>
<path fill="none" stroke="#c0c0c0" stroke-width="2" d="M225.075,-575.8314C228.6102,-567.8771 232.836,-558.369 236.7456,-549.5723"/>
<polygon fill="#c0c0c0" stroke="#c0c0c0" stroke-width="2" points="239.9532,-550.9729 240.8163,-540.4133 233.5565,-548.1299 239.9532,-550.9729"/>
</g>
<!-- 9&#45;&gt;6 -->
<g id="edge12" class="edge">
<title>9&#45;&gt;6</title>
<path fill="none" stroke="#c0c0c0" stroke-width="2" d="M233.6071,-503.8314C226.5096,-495.454 217.952,-485.3531 210.176,-476.1749"/>
<polygon fill="#c0c0c0" stroke="#c0c0c0" stroke-width="2" points="212.7348,-473.7807 203.6001,-468.4133 207.3939,-478.3056 212.7348,-473.7807"/>
</g>
<!-- 10&#45;&gt;6 -->
<g id="edge13" class="edge">
<title>10&#45;&gt;6</title>
<path fill="none" stroke="#c0c0c0" stroke-width="2" d="M133.421,-503.8314C142.1529,-495.219 152.7317,-484.7851 162.2423,-475.4048"/>
<polygon fill="#c0c0c0" stroke="#c0c0c0" stroke-width="2" points="164.923,-477.6769 169.5849,-468.1628 160.0075,-472.6931 164.923,-477.6769"/>
</g>
<!-- 11 -->
<g id="node12" class="node">
<title>11</title>
<path fill="none" stroke="#567bd8" stroke-width="2" d="M146.5,-324C146.5,-324 83.5,-324 83.5,-324 77.5,-324 71.5,-318 71.5,-312 71.5,-312 71.5,-300 71.5,-300 71.5,-294 77.5,-288 83.5,-288 83.5,-288 146.5,-288 146.5,-288 152.5,-288 158.5,-294 158.5,-300 158.5,-300 158.5,-312 158.5,-312 158.5,-318 152.5,-324 146.5,-324"/>
<text text-anchor="middle" x="115" y="-303.5" font-family="sans" font-size="10.00" fill="#000000">retrieve_reads</text>
</g>
<!-- 11&#45;&gt;7 -->
<g id="edge15" class="edge">
<title>11&#45;&gt;7</title>
<path fill="none" stroke="#c0c0c0" stroke-width="2" d="M115,-287.8314C115,-280.131 115,-270.9743 115,-262.4166"/>
<polygon fill="#c0c0c0" stroke="#c0c0c0" stroke-width="2" points="118.5001,-262.4132 115,-252.4133 111.5001,-262.4133 118.5001,-262.4132"/>
</g>
<!-- 12 -->
<g id="node13" class="node">
<title>12</title>
<path fill="none" stroke="#afd856" stroke-width="2" d="M240.5,-684C240.5,-684 193.5,-684 193.5,-684 187.5,-684 181.5,-678 181.5,-672 181.5,-672 181.5,-660 181.5,-660 181.5,-654 187.5,-648 193.5,-648 193.5,-648 240.5,-648 240.5,-648 246.5,-648 252.5,-654 252.5,-660 252.5,-660 252.5,-672 252.5,-672 252.5,-678 246.5,-684 240.5,-684"/>
<text text-anchor="middle" x="217" y="-663.5" font-family="sans" font-size="10.00" fill="#000000">map_reads</text>
</g>
<!-- 12&#45;&gt;8 -->
<g id="edge16" class="edge">
<title>12&#45;&gt;8</title>
<path fill="none" stroke="#c0c0c0" stroke-width="2" d="M217,-647.8314C217,-640.131 217,-630.9743 217,-622.4166"/>
<polygon fill="#c0c0c0" stroke="#c0c0c0" stroke-width="2" points="220.5001,-622.4132 217,-612.4133 213.5001,-622.4133 220.5001,-622.4132"/>
</g>
<!-- 13&#45;&gt;11 -->
<g id="edge19" class="edge">
<title>13&#45;&gt;11</title>
<path fill="none" stroke="#c0c0c0" stroke-width="2" d="M115,-359.8314C115,-352.131 115,-342.9743 115,-334.4166"/>
<polygon fill="#c0c0c0" stroke="#c0c0c0" stroke-width="2" points="118.5001,-334.4132 115,-324.4133 111.5001,-334.4133 118.5001,-334.4132"/>
</g>
<!-- 14 -->
<g id="node15" class="node">
<title>14</title>
<path fill="none" stroke="#d85656" stroke-width="2" d="M253,-756C253,-756 181,-756 181,-756 175,-756 169,-750 169,-744 169,-744 169,-732 169,-732 169,-726 175,-720 181,-720 181,-720 253,-720 253,-720 259,-720 265,-726 265,-732 265,-732 265,-744 265,-744 265,-750 259,-756 253,-756"/>
<text text-anchor="middle" x="217" y="-735.5" font-family="sans" font-size="10.00" fill="#000000">index_assembly</text>
</g>
<!-- 14&#45;&gt;12 -->
<g id="edge20" class="edge">
<title>14&#45;&gt;12</title>
<path fill="none" stroke="#c0c0c0" stroke-width="2" d="M217,-719.8314C217,-712.131 217,-702.9743 217,-694.4166"/>
<polygon fill="#c0c0c0" stroke="#c0c0c0" stroke-width="2" points="220.5001,-694.4132 217,-684.4133 213.5001,-694.4133 220.5001,-694.4132"/>
</g>
</g>
</svg>
